<svg width="55" height="36" viewBox="0 0 55 36" fill="none" xmlns="http://www.w3.org/2000/svg">
<path fill-rule="evenodd" clip-rule="evenodd" d="M0 18C0 17.492 0.204129 17.0048 0.567481 16.6456C0.930832 16.2864 1.42364 16.0846 1.9375 16.0846L47.6354 16.0846L35.4408 4.03318C35.0769 3.67352 34.8726 3.18573 34.8726 2.6771C34.8726 2.16847 35.0769 1.68068 35.4408 1.32102C35.8046 0.961369 36.298 0.759319 36.8125 0.759319C37.327 0.759319 37.8204 0.961369 38.1843 1.32102L53.6843 16.6439C53.8647 16.8218 54.0078 17.0332 54.1055 17.2659C54.2032 17.4986 54.2535 17.7481 54.2535 18C54.2535 18.2519 54.2032 18.5014 54.1055 18.7341C54.0078 18.9668 53.8647 19.1781 53.6843 19.3561L38.1843 34.679C37.8204 35.0386 37.327 35.2407 36.8125 35.2407C36.298 35.2407 35.8046 35.0386 35.4408 34.679C35.0769 34.3193 34.8726 33.8315 34.8726 33.3229C34.8726 32.8143 35.0769 32.3265 35.4408 31.9668L47.6354 19.9154L1.9375 19.9154C1.42364 19.9154 0.930832 19.7136 0.567481 19.3544C0.204129 18.9952 0 18.508 0 18Z" fill="white"/>
</svg>
