<svg width="148" height="90" viewBox="0 0 148 90" fill="none" xmlns="http://www.w3.org/2000/svg">
<path d="M68.3238 45.1881L70.14 41.3872L66.562 38.3827L63.108 40.8479C61.7848 40.1088 60.3759 39.5348 58.9128 39.139L58.2162 34.9181L53.5627 34.511L52.126 38.5756C49.5613 38.8387 47.0801 39.6359 44.8421 40.9158L41.2962 38.3547L37.7057 41.3675L39.6373 45.3344C38.7042 46.4764 37.9114 47.7263 37.276 49.0573L32.8612 48.99L31.6512 53.5023L35.5163 55.6559C35.3998 57.1226 35.4577 58.598 35.6888 60.0511L32.0284 62.5311L33.6268 66.922L38.0056 66.4747C38.5305 67.3724 39.1302 68.2244 39.7981 69.0216C40.0824 69.3604 40.3785 69.68 40.6829 69.9928L39.1211 74.097L42.9479 76.7764L46.2366 73.9423C47.6005 74.5728 49.036 75.0351 50.5115 75.3189L51.5762 79.501L56.2392 79.509L57.2902 75.3676C58.7849 75.1007 60.2415 74.6525 61.6276 74.033L64.8609 76.7819L68.6882 74.1013L67.2106 70.1539C68.2932 69.0673 69.2366 67.8503 70.0189 66.5309L74.1868 66.931L75.7864 62.5388L72.3453 60.1692C72.6035 58.6519 72.6722 57.1083 72.5498 55.574L76.1888 53.5124L74.9782 49.001L70.8062 49.0234C70.1414 47.6468 69.3075 46.3584 68.3238 45.1881ZM62.9805 49.5692C64.4639 51.337 65.3897 53.5049 65.6409 55.7989C65.8921 58.0928 65.4575 60.4097 64.3919 62.4566C63.3264 64.5035 61.6778 66.1885 59.6546 67.2984C57.6314 68.4084 55.3245 68.8935 53.0257 68.6924C50.7268 68.4912 48.5392 67.6129 46.7395 66.1685C44.9398 64.7241 43.6088 62.7785 42.9149 60.5776C42.221 58.3768 42.1953 56.0196 42.841 53.8041C43.4867 51.5887 44.775 49.6144 46.5427 48.1311C48.9136 46.1429 51.9769 45.1776 55.0593 45.4473C58.1417 45.7169 60.9909 47.1996 62.9805 49.5692Z" fill="white"/>
<path d="M40.9421 31.0286L44.7766 29.2808L43.9669 24.6794L39.7365 24.3512C39.1979 22.9344 38.4875 21.5891 37.6212 20.3454L39.8007 16.6643L36.4976 13.3577L32.7844 15.5621C30.6507 14.1141 28.2376 13.1287 25.7003 12.6692L24.6302 8.43164H19.9431L18.873 12.7121C17.4241 12.9871 16.0134 13.435 14.6711 14.0461L11.3324 11.1568L7.50499 13.8357L9.08161 17.9698C8.05185 19.0201 7.15024 20.1887 6.39565 21.4512L2.00109 20.9839L0.403074 25.3749L4.04499 27.8469C3.8702 28.8709 3.78191 29.9078 3.78103 30.9466C3.78103 31.3889 3.80243 31.8277 3.83453 32.2628L0 34.403L1.20922 38.9189L5.55026 38.8618C6.18636 40.2165 6.98533 41.4887 7.92946 42.6499L6.05678 46.5416L9.62379 49.545L13.0909 47.0481C14.4069 47.8047 15.8109 48.3965 17.2715 48.8102L17.9813 53.0157L22.6362 53.4259L24.0416 49.4487C25.5695 49.3122 27.0744 48.9863 28.5218 48.4784L31.4574 51.464L35.506 49.1276L34.3931 45.1005C35.5663 44.1041 36.6111 42.9658 37.5035 41.7118L41.6163 42.4716L43.5888 38.234L40.3785 35.573C40.755 34.0876 40.9443 32.561 40.9421 31.0286ZM34.0328 30.9466C34.0328 33.2542 33.3485 35.5101 32.0665 37.4288C30.7844 39.3476 28.9622 40.843 26.8302 41.7261C24.6982 42.6092 22.3522 42.8403 20.0889 42.3901C17.8256 41.9399 15.7466 40.8286 14.1148 39.1969C12.4831 37.5651 11.3718 35.4862 10.9216 33.2228C10.4714 30.9595 10.7025 28.6136 11.5856 26.4816C12.4687 24.3496 13.9642 22.5273 15.8829 21.2453C17.8017 19.9632 20.0575 19.2789 22.3651 19.2789C25.4596 19.2789 28.4273 20.5082 30.6154 22.6963C32.8036 24.8844 34.0328 27.8521 34.0328 30.9466Z" fill="#002EFF"/>
<path d="M130.675 46.1438L132.489 42.3401L128.908 39.3379L125.451 41.8104C124.131 41.0761 122.728 40.5044 121.271 40.1079L120.572 35.8843L115.918 35.4772L114.493 39.5504C111.927 39.8133 109.444 40.6103 107.204 41.8902L103.661 39.3318L100.081 42.3354L102.013 46.3023C101.079 47.444 100.286 48.694 99.6515 50.0252L95.2317 49.9575L94.024 54.4725L97.8891 56.6261C97.7777 58.0919 97.8391 59.5657 98.0721 61.0172L94.409 63.4995L96.0073 67.8904L100.376 67.4193C100.902 68.3144 101.502 69.1646 102.169 69.9612C102.453 70.3 102.751 70.6224 103.051 70.9347L101.492 75.0366L105.297 77.7243L108.583 74.8925C109.943 75.5193 111.373 75.9794 112.844 76.2628L113.911 80.4476L118.574 80.4556L119.627 76.3119C121.126 76.0542 122.587 75.6104 123.976 74.991L127.212 77.7376L131.026 75.0684L129.555 71.1343C130.637 70.0471 131.58 68.8301 132.363 67.5112L136.531 67.9063L138.128 63.5165L134.692 61.1473C134.949 59.6298 135.018 58.0864 134.897 56.5521L138.546 54.4813L137.339 49.9676L133.167 49.99C132.497 48.6105 131.66 47.3188 130.675 46.1438ZM125.319 50.5313C126.804 52.2984 127.732 54.4665 127.985 56.7612C128.238 59.0558 127.804 61.374 126.739 63.4222C125.674 65.4704 124.026 67.1566 122.002 68.2675C119.978 69.3783 117.67 69.8639 115.371 69.6627C113.071 69.4615 110.882 68.5825 109.082 67.1371C107.282 65.6917 105.951 63.7448 105.258 61.5428C104.565 59.3408 104.541 56.9826 105.188 54.7667C105.836 52.5508 107.126 50.5768 108.896 49.0945C111.265 47.1091 114.325 46.1452 117.405 46.4146C120.484 46.684 123.33 48.1647 125.319 50.5313Z" fill="white"/>
<path d="M107.943 22.9343L111.574 20.7953L110.284 16.304L106.036 16.4206C105.349 15.0676 104.501 13.803 103.509 12.6547L105.292 8.76595L101.662 5.82625L98.203 8.40636C95.9284 7.18933 93.4243 6.4617 90.8518 6.27022L89.3446 2.16768L84.6974 2.65612L84.0806 7.02494C82.6681 7.44944 81.3119 8.04236 80.0411 8.79092L76.4147 6.26329L72.8887 9.33105L74.8888 13.2778C73.9758 14.43 73.2025 15.6864 72.585 17.0205L68.1601 17.0301L67.0307 21.5388L70.9279 23.6399C70.8642 24.6777 70.8861 25.7191 70.9933 26.7534C71.0395 27.1933 71.1063 27.6238 71.1802 28.0536L67.5939 30.5826L69.2458 34.9353L73.5539 34.4287C74.3314 35.7081 75.2599 36.8894 76.3196 37.947L74.8639 42.0131L78.7253 44.6272L81.916 41.7812C83.3042 42.3964 84.7624 42.8394 86.2582 43.1002L87.4051 47.1868L92.0593 47.1065L93.0502 43.0212C94.5556 42.7265 96.0183 42.2451 97.4044 41.5879L100.64 44.25L104.418 41.5035L102.894 37.618C103.955 36.5028 104.875 35.2618 105.634 33.9227L109.808 34.2587L111.331 29.8413L107.859 27.5269C108.076 26.0053 108.104 24.4628 107.943 22.9343V22.9343ZM101.049 23.5765C101.29 25.8715 100.846 28.1865 99.7711 30.2287C98.6967 32.2709 97.0407 33.9487 95.0127 35.0498C92.9847 36.1509 90.6757 36.626 88.3778 36.4148C86.0798 36.2036 83.896 35.3158 82.1027 33.8636C80.3093 32.4113 78.9868 30.4599 78.3025 28.256C77.6182 26.0522 77.6028 23.6949 78.2582 21.4823C78.9136 19.2696 80.2104 17.3011 81.9846 15.8255C83.7588 14.3499 85.9308 13.4335 88.2258 13.1923C89.7497 13.0317 91.2903 13.1729 92.7596 13.6079C94.2289 14.0428 95.5982 14.7631 96.789 15.7274C97.9799 16.6918 98.9691 17.8813 99.7 19.2281C100.431 20.5748 100.889 22.0524 101.049 23.5765V23.5765Z" fill="#002EFF"/>
<rect x="16.7427" y="23.0814" width="125.57" height="37.671" fill="#08051F"/>
<path d="M18.7076 52.1743V29.99H21.6549L26.0601 43.5224L30.4653 29.99H33.4126V52.1743H30.4653V38.9905L27.5179 48.0227H24.6023L21.6549 38.9905V52.1743H18.7076ZM35.7605 52.1743V29.99H47.5499V32.9057H38.7079V38.42H44.6026L43.937 41.3674H38.7079V49.227H47.5499V52.1743H35.7605ZM52.1861 52.1743C51.5945 52.1743 51.0663 51.9525 50.6015 51.5088C50.1367 51.0651 49.9043 50.5263 49.9043 49.8925V32.2718C49.9043 31.6591 50.1367 31.1309 50.6015 30.6872C51.0663 30.2224 51.5945 29.99 52.1861 29.99H59.3801C60.0351 29.99 60.5739 30.2224 60.9964 30.6872C61.4401 31.1309 61.6619 31.6591 61.6619 32.2718V36.3918L58.7146 37.0573V34.0783C58.7146 33.7825 58.609 33.5184 58.3977 33.286C58.2075 33.0536 57.9434 32.9373 57.6054 32.9373H53.9925C53.6967 32.9373 53.4326 33.0536 53.2002 33.286C52.9678 33.5184 52.8516 33.7825 52.8516 34.0783V48.0861C52.8516 48.4241 52.9678 48.6988 53.2002 48.9101C53.4326 49.1213 53.6967 49.227 53.9925 49.227H57.6054C57.9434 49.227 58.2075 49.1213 58.3977 48.9101C58.609 48.6988 58.7146 48.4241 58.7146 48.0861V45.7726L61.6619 45.0753V49.8925C61.6619 50.5263 61.4401 51.0651 60.9964 51.5088C60.5739 51.9525 60.0351 52.1743 59.3801 52.1743H52.1861ZM64.3265 52.1743V29.99H67.2739V38.42H73.1686V29.99H76.0842V52.1743H73.1686V41.3674H67.2739V52.1743H64.3265ZM78.9949 52.1743V29.9583H87.0447C87.6996 29.9583 88.249 30.1907 88.6926 30.6555C89.1363 31.0992 89.3582 31.6274 89.3582 32.2401V38.5468C89.7807 38.6947 90.1293 38.9694 90.404 39.3708C90.6787 39.7722 90.816 40.2054 90.816 40.6702V49.8608C90.816 50.5158 90.5942 51.0651 90.1505 51.5088C89.7068 51.9525 89.168 52.1743 88.5342 52.1743H78.9949ZM81.974 38.42H85.2382C85.5551 38.42 85.8298 38.3038 86.0622 38.0714C86.2946 37.839 86.4108 37.5749 86.4108 37.2791V34.0466C86.4108 33.7296 86.2946 33.4655 86.0622 33.2543C85.8298 33.0219 85.5551 32.9057 85.2382 32.9057H81.974V38.42ZM81.974 49.227H86.7594C87.0552 49.227 87.3088 49.1213 87.52 48.9101C87.7524 48.6776 87.8687 48.3924 87.8687 48.0544V42.4766C87.8687 42.1808 87.7524 41.9167 87.52 41.6843C87.3088 41.4519 87.0552 41.3357 86.7594 41.3357H81.974V49.227ZM96.906 52.1743C96.3144 52.1743 95.7968 51.9525 95.3531 51.5088C94.9094 51.0651 94.6876 50.5158 94.6876 49.8608V32.3035C94.6876 31.6485 94.9094 31.0992 95.3531 30.6555C95.7968 30.2118 96.3144 29.99 96.906 29.99H104.1C104.776 29.99 105.326 30.2118 105.748 30.6555C106.192 31.0992 106.414 31.6485 106.414 32.3035V49.8608C106.414 50.5158 106.192 51.0651 105.748 51.5088C105.326 51.9525 104.776 52.1743 104.1 52.1743H96.906ZM98.7125 49.2587H102.294C102.653 49.2587 102.938 49.1425 103.149 48.9101C103.382 48.6776 103.498 48.3924 103.498 48.0544V34.1099C103.498 33.7508 103.382 33.4655 103.149 33.2543C102.938 33.0219 102.653 32.9057 102.294 32.9057H98.7125C98.4167 32.9057 98.1526 33.0219 97.9202 33.2543C97.7089 33.4655 97.6033 33.7508 97.6033 34.1099V48.0544C97.6033 48.3924 97.7089 48.6776 97.9202 48.9101C98.1526 49.1425 98.4167 49.2587 98.7125 49.2587ZM112.398 52.1743V32.9373H107.993V29.99H119.75V32.9373H115.345V52.1743H112.398ZM123.894 52.1743C123.26 52.1743 122.721 51.9525 122.277 51.5088C121.834 51.0651 121.612 50.5263 121.612 49.8925V44.9803L124.559 45.6458V48.0861C124.559 48.403 124.665 48.6776 124.876 48.9101C125.109 49.1213 125.373 49.227 125.668 49.227H129.281C129.598 49.227 129.862 49.1213 130.074 48.9101C130.306 48.6776 130.422 48.403 130.422 48.0861V42.5083C130.422 42.1914 130.306 41.9273 130.074 41.716C129.862 41.4836 129.598 41.3674 129.281 41.3674H123.894C123.26 41.3674 122.721 41.1455 122.277 40.7019C121.834 40.2582 121.612 39.7194 121.612 39.0856V32.2718C121.612 31.638 121.834 31.0992 122.277 30.6555C122.721 30.2118 123.26 29.99 123.894 29.99H131.088C131.722 29.99 132.26 30.2118 132.704 30.6555C133.148 31.0992 133.37 31.638 133.37 32.2718V35.6945L130.422 34.9973V34.0783C130.422 33.7613 130.306 33.4972 130.074 33.286C129.862 33.0536 129.598 32.9373 129.281 32.9373H125.668C125.373 32.9373 125.109 33.0536 124.876 33.286C124.665 33.4972 124.559 33.7613 124.559 34.0783V37.2791C124.559 37.5961 124.665 37.8707 124.876 38.1031C125.109 38.3144 125.373 38.42 125.668 38.42H131.088C131.722 38.42 132.26 38.6419 132.704 39.0856C133.148 39.5293 133.37 40.068 133.37 40.7019V49.8925C133.37 50.5263 133.148 51.0651 132.704 51.5088C132.26 51.9525 131.722 52.1743 131.088 52.1743H123.894Z" fill="#002BEE"/>
</svg>
